<svg width="38" height="38" viewBox="0 0 38 38" fill="none" xmlns="http://www.w3.org/2000/svg">
<path d="M25.6651 36.6239H34.3256C35.5949 36.6239 36.6239 35.5949 36.6239 34.3256V3.29831C36.6239 2.02896 35.5949 1 34.3256 1H3.29831C2.02896 1 1 2.02896 1 3.29831V34.3256C1 35.5949 2.02896 36.6239 3.29831 36.6239H20.0245" stroke="white" stroke-width="2" stroke-miterlimit="10"/>
<path d="M25.6652 36.6239V22.5225H30.7416L31.3057 16.882H25.6652V13.4977C25.6652 11.2414 27.3573 11.2414 27.9214 11.2414C28.4854 11.2414 31.3057 11.2414 31.3057 11.2414V6.16497C29.026 5.93392 20.0246 3.90877 20.0246 13.4977V16.882H15.5122V22.5225H20.0246V36.6239" stroke="white" stroke-width="2" stroke-miterlimit="10" stroke-linecap="round" stroke-linejoin="round"/>
</svg>
