<svg width="38" height="38" viewBox="0 0 38 38" fill="none" xmlns="http://www.w3.org/2000/svg">
<path d="M27.3006 1H10.6994C5.34261 1 1 5.34261 1 10.6994V27.3006C1 32.6574 5.34261 37 10.6994 37H27.3006C32.6574 37 37 32.6574 37 27.3006V10.6994C37.0001 5.34261 32.6575 1 27.3006 1V1Z" stroke="white" stroke-width="2" stroke-miterlimit="10"/>
<path d="M18.9999 28C23.8285 28 27.7428 23.9706 27.7428 19C27.7428 14.0294 23.8285 10 18.9999 10C14.1714 10 10.2571 14.0294 10.2571 19C10.2571 23.9706 14.1714 28 18.9999 28Z" stroke="white" stroke-width="2" stroke-miterlimit="10"/>
<path d="M29.5518 11.0519C30.5802 11.0519 31.4139 10.2413 31.4139 9.24151C31.4139 8.24168 30.5802 7.43115 29.5518 7.43115C28.5234 7.43115 27.6897 8.24168 27.6897 9.24151C27.6897 10.2413 28.5234 11.0519 29.5518 11.0519Z" fill="white"/>
</svg>
