<svg width="39" height="33" viewBox="0 0 39 33" fill="none" xmlns="http://www.w3.org/2000/svg">
<path d="M36.917 1.49571C36.917 1.49571 34.9644 3.11167 32.2246 3.40255C32.2246 3.40255 27.9101 -1.54238 21.7375 2.75618C18.9661 4.75999 18.7142 8.99394 19.1866 10.5129C19.1866 10.5129 10.8095 11.1917 3.50315 2.40069C3.50315 2.40069 0.227923 8.21826 5.64463 12.8723C5.64463 12.8723 4.04364 13.1309 2.52178 11.8381C2.52178 11.8381 1.80246 17.8496 8.35299 19.5303C8.35299 19.5303 7.91211 20.3059 5.26672 19.5303C5.26672 19.5303 5.70759 24.4428 11.9432 25.1539C11.9432 25.1539 8.57452 28.7091 1 28.2566C1 28.2566 13.5179 37.888 27.0597 26.2528C34.618 19.6596 34.3661 10.1575 34.2401 8.73548C34.2401 8.73548 37.2249 6.40845 38 4.92171C38 4.92171 35.6888 5.69739 33.7992 5.69739C33.7992 5.69724 36.3186 4.3398 36.917 1.49571V1.49571Z" stroke="white" stroke-width="2" stroke-miterlimit="10" stroke-linecap="round" stroke-linejoin="round"/>
</svg>
